<svg xmlns="http://www.w3.org/2000/svg" version="1.1" xmlns:xlink="http://www.w3.org/1999/xlink" xmlns:svgjs="http://svgjs.dev/svgjs" width="128" height="128" viewBox="0 0 128 128"><g transform="matrix(0.8046875,0,0,0.8046875,12.333870967741937,12.333870967741937)"><svg viewBox="0 0 155 155" data-background-color="#ffffff" preserveAspectRatio="xMidYMid meet" height="128" width="128" xmlns="http://www.w3.org/2000/svg" xmlns:xlink="http://www.w3.org/1999/xlink"><g id="tight-bounds" transform="matrix(1,0,0,1,0.25,0.25)"><svg viewBox="0 0 154.5 154.5" height="154.5" width="154.5"><g><svg></svg></g><g><svg viewBox="0 0 154.5 154.5" height="154.5" width="154.5"><g transform="matrix(1,0,0,1,47.746371,62.39768108629826)"><svg viewBox="0 0 59.00725799999999 29.70463782740348" height="29.70463782740348" width="59.00725799999999"><g><svg viewBox="0 0 59.00725799999999 29.70463782740348" height="29.70463782740348" width="59.00725799999999"><g><svg viewBox="0 0 59.00725799999999 29.70463782740348" height="29.70463782740348" width="59.00725799999999"><g id="textblocktransform"><svg viewBox="0 0 59.00725799999999 29.70463782740348" height="29.70463782740348" width="59.00725799999999" id="textblock"><g><svg viewBox="0 0 59.00725799999999 29.70463782740348" height="29.70463782740348" width="59.00725799999999"><g transform="matrix(1,0,0,1,0,0)"><svg width="59.00725799999999" viewBox="1.65 -33.25 66.05 33.25" height="29.70463782740348" data-palette-color="#0718c4"><path d="M10.95 0L1.65 0 1.65-1.25 4.3-1.85 17.05-33.25 18.1-33.25 30.8-1.9 33.8-1.25 33.8 0 23.15 0 23.15-1.25 27.4-1.9 23.2-12.5 10.55-12.5 6.5-1.9 10.95-1.25 10.95 0ZM16.8-28.7L11.25-14.25 22.5-14.25 16.8-28.7ZM50 0L38.7 0 38.7-1.25 42.7-2.1 42.7-30.9 38.7-31.75 38.7-33 50.35-33Q55.85-33 59.75-31.05 63.65-29.1 65.67-25.7 67.7-22.3 67.7-18L67.7-18Q67.7-12.45 65.52-8.43 63.35-4.4 59.4-2.2 55.45 0 50 0L50 0ZM50.7-31.25L50.7-31.25 45.7-31.25 45.7-1.75 50.95-1.75Q55.05-1.75 58.07-3.63 61.1-5.5 62.77-8.8 64.45-12.1 64.45-16.45L64.45-16.45Q64.45-20.9 62.85-24.25 61.25-27.6 58.17-29.43 55.1-31.25 50.7-31.25Z" opacity="1" transform="matrix(1,0,0,1,0,0)" fill="#ffffff" class="undefined-text-0" data-fill-palette-color="primary" id="text-0"></path></svg></g></svg></g></svg></g></svg></g></svg></g></svg></g><g><path d="M57.441 55.385A29.504 29.504 0 0 1 97.059 55.385L94.38 55.385A26.825 26.825 0 0 0 60.12 55.385L57.441 55.385M57.441 99.115A29.504 29.504 0 0 0 97.059 99.115L94.38 99.115A26.825 26.825 0 0 1 60.12 99.115L57.441 99.115" fill="#ffffff" stroke="transparent" data-fill-palette-color="tertiary"></path></g></svg></g><defs></defs></svg><rect width="154.5" height="154.5" fill="none" stroke="none" visibility="hidden"></rect></g></svg></g></svg>